# xmcd
#
# Track frame offsets:
#	150
#	6576
#	21005
#	35466
#	49841
#	78493
#	85880
#	108242
#	130378
#	149613
#
# Disc length: 2357 seconds
# Revision: 0
# Processed by: cddbd v1.5.2PL0 Copyright (c) Steve Scherf et al.
# Submitted via: dBpowerAMP V12.0
#
DISCID=8409330a
DTITLE=Maria Muldaur - Sweet and Slow
DYEAR=1983
DGENRE=Blues
TTITLE0=Cooking Breakfast for the One I Love
TTITLE1=Adam and Eve Had the Blues
TTITLE2=Blues for Hungry (Laid Back Blues)
TTITLE3=There's Going to Be the Devil to Pay
TTITLE4=Sweet and Slow
TTITLE5=Brother, Seek and Ye Shall Find
TTITLE6=Oh Papa
TTITLE7=Loverman (Oh Where Can You Be)
TTITLE8=Gee Baby, Ain't I Good to You
TTITLE9=Prelude to a Kiss
EXTD=
EXTT0=
EXTT1=
EXTT2=
EXTT3=
EXTT4=
EXTT5=
EXTT6=
EXTT7=
EXTT8=
EXTT9=
PLAYORDER=
